<?xml version="1.0" encoding="UTF-8" standalone="no"?>
<!-- Created with Inkscape (http://www.inkscape.org/) -->

<svg
   version="1.1"
   id="svg1"
   width="2434.0427"
   height="2260.5657"
   viewBox="0 0 2434.0428 2260.5657"
   sodipodi:docname="HP_Aisle_Buttons2.svg"
   inkscape:version="1.4.2 (f4327f4, 2025-05-13)"
   xmlns:inkscape="http://www.inkscape.org/namespaces/inkscape"
   xmlns:sodipodi="http://sodipodi.sourceforge.net/DTD/sodipodi-0.dtd"
   xmlns="http://www.w3.org/2000/svg"
   xmlns:svg="http://www.w3.org/2000/svg">
  <sodipodi:namedview
     id="namedview1"
     pagecolor="#ffffff"
     bordercolor="#000000"
     borderopacity="0.25"
     inkscape:showpageshadow="2"
     inkscape:pageopacity="0.0"
     inkscape:pagecheckerboard="0"
     inkscape:deskcolor="#d1d1d1"
     inkscape:zoom="0.30390625"
     inkscape:cx="1033.2134"
     inkscape:cy="1653.4704"
     inkscape:window-width="2560"
     inkscape:window-height="1369"
     inkscape:window-x="-8"
     inkscape:window-y="-8"
     inkscape:window-maximized="1"
     inkscape:current-layer="svg1">
    <inkscape:page
       x="0"
       y="0"
       width="2434.0427"
       height="2260.5657"
       id="page6"
       margin="0"
       bleed="0" />
  </sodipodi:namedview>
  <defs
     id="defs1" />
  <g
     id="g1">
    <path
       style="fill:#000000"
       d="m 527.99998,2239.9619 c -33.31366,0.512 -51.48938,0.198 -91.81662,-3.4684 -11.17957,-1.0164 -36.55283,-4.0744 -46.76638,-9.028 -45.13793,-22.4955 -67.11141,-67.6355 -69.24002,-72.4056 -0.32905,-0.7374 -24.01472,-47.3141 -24.7215,-49.7831 -33.13542,-115.7531 -27.76594,-476.0264 -10.57989,-492.5743 4.01009,-3.8612 19.47256,-25.7512 45.97528,-41.0533 34.32988,-19.8214 124.05518,-24.0451 151.54078,-25.1324 46.09579,0.2754 78.18967,-2.9315 122.78112,-2.3468 2.69583,0.1946 350.93151,-0.4607 351.85813,-0.5347 28.95511,-2.3115 739.95522,-14.5153 782.75822,-14.57 28.5579,-0.037 87.2703,6.555 115.3599,8.3627 15.5444,1.0004 79.8333,12.9153 87.4815,15.4276 18.2464,5.9936 44.1991,26.6965 63.3237,56.4816 15.9227,24.7984 12.0347,31.0521 12.9181,59.5005 0.6901,22.2249 8.7005,63.1209 5.9359,265.1662 -0.4701,34.3481 -0.3574,73.0404 -3.9994,91.2103 -1.1574,5.4313 4.5439,-20.1707 -9.3776,52.7897 -0.5596,2.9333 -18.1968,39.7591 -19.973,41.5433 -10.9656,11.0149 -45.0928,35.9347 -55.5538,42.8832 -12.9322,8.5898 -88.9905,28.1686 -95.9045,29.5174 -5.4165,1.0567 -238.2401,15.4674 -329.3556,23.508 -127.7403,3.692 -945.78549,23.9352 -982.64432,24.5061 z"
       id="path1" />
  </g>
</svg>
