<?xml version="1.0" encoding="UTF-8" standalone="no"?>
<!-- Created with Inkscape (http://www.inkscape.org/) -->

<svg
   version="1.1"
   id="svg1"
   width="2437.3333"
   height="3840"
   viewBox="0 0 2437.3333 3840"
   xmlns="http://www.w3.org/2000/svg"
   xmlns:svg="http://www.w3.org/2000/svg">
  <defs
     id="defs1" />
  <g
     id="g1">
    <path
       style="fill:#000000"
       d="m 585.50855,3039.2837 c -19.28965,-4.8686 -52.27391,-11.6316 -67.61483,-19.0333 -24.83843,-11.9841 -27.46518,-12.0209 -43.22708,-26.9171 -17.5253,-16.5627 -50.37927,-94.3979 -53.87983,-103.3279 -16.94594,-43.2292 -35.32899,-70.7054 -42.75009,-112.4738 -4.2972,-27.0482 -16.13049,-68.9749 -18.1154,-88.2339 -2.39543,-23.2422 -10.55098,-95.758 -11.48769,-98.413 -1.31463,-3.7261 -9.25742,-107.5296 -2.103,-165.8921 3.20271,-22.3688 8.51981,-45.0898 17.21161,-52.0279 4.65903,-3.7187 0.86359,-4.723 14.53519,-14.0923 36.23456,-24.8326 68.18244,-25.7826 71.28066,-27.755 38.08279,-8.8223 45.38822,-13.2326 83.47975,-14.0384 9.34981,-0.1593 54.80097,-1.7495 63.14101,-2.9725 87.71063,-12.8616 496.45325,-11.1261 728.61005,-31.6715 5.8385,-0.5167 291.9642,-29.211 301.2807,-30.139 119.8042,-11.9334 140.4028,-8.9139 147.7466,-8.8787 21.8488,0.1047 57.1536,3.101 85.5146,8.7872 17.3617,3.4809 40.5157,16.8596 52.8691,23.5425 17.0088,9.2014 58.4951,37.1871 65.3231,42.9186 16.9775,20.2684 28.0821,41.1772 31.2432,67.3843 16.7177,138.5985 32.9793,281.1972 21.3957,421.949 -2.8244,39.213 -18.1155,74.4138 -23.8628,86.5849 -15.9006,33.6725 -78.7907,61.3404 -112.0986,68.2805 -55.1586,11.4918 -55.3322,9.6133 -138.5231,27.2097 -36.5754,7.7364 -891.4487,61.6171 -1010.04594,62.0145 -3.71995,0.6225 -138.9339,-7.5073 -159.92291,-12.8048 z"
       id="path1" />
  </g>
</svg>
