<?xml version="1.0" encoding="UTF-8" standalone="no"?>
<!-- Created with Inkscape (http://www.inkscape.org/) -->

<svg
   version="1.1"
   id="svg1"
   width="2440.6238"
   height="1497.1722"
   viewBox="0 0 2440.6238 1497.1722"
   xmlns="http://www.w3.org/2000/svg"
   xmlns:svg="http://www.w3.org/2000/svg">
  <defs
     id="defs1" />
  <g
     id="g1">
    <path
       style="fill:#000000"
       d="m 623.33331,1484.6022 c -7.36139,-1.0904 -62.1882,-4.9186 -34.92202,-2.9878 5.9493,0.4213 -10.83736,4.5354 -68.25059,-11.3827 -28.78499,-10.4183 -55.49596,-20.9383 -75.21912,-46.4765 -0.10066,-0.137 -26.23245,-35.7095 -28.2559,-46.3494 -0.21681,-1.1401 -1.05128,-6.5729 -1.85438,-12.0729 -0.80309,-5.5 -1.83968,-13.6 -2.30353,-18 -0.46384,-4.4 -0.82724,-35 -0.80753,-68 0.079,-132.3656 3.55286,-131.0371 2.39784,-254.6666 -0.2809,-30.0667 0.0166,-57.9667 0.66106,-62.00003 2.92794,-18.32388 -2.3e-4,-23.84759 6.36189,-38.6975 2.48445,-12.03176 4.08817,-16.06386 8.86511,-26.3364 0.85338,-2.06024 13.21476,-18.17284 15.38368,-19.45406 12.75642,-13.1171 23.68611,-22.76785 40.90888,-32.43179 10.62612,-7.31798 17.04122,-8.41578 29.45784,-9.70117 8.20843,-1.23454 31.42562,-2.0839 39.07677,-2.30193 36.50128,-1.04017 11.92986,-3.0995 55.8826,-4.71581 4.05321,-0.13033 64.05164,-2.2663 64.90146,-2.79152 292.00871,-21.89882 575.15473,-42.643 876.38253,-56.44384 12.8334,-0.5568 55.8169,-4.54947 70.6131,-5.18219 33.9237,-1.45065 67.9177,-6.13971 87.8969,0.77441 7.3963,3.03707 33.2427,6.0814 50.2561,14.1316 18.474,6.55146 34.6071,15.59125 49.503,29.28037 0.6343,0.61371 5.7818,6.28865 19.7309,29.41512 10.0701,16.5868 13.7993,33.72037 13.9565,34.4549 18.5982,69.4697 26.5745,125.33685 29.6417,204.33334 1.5114,38.9259 12.3157,95.3963 5.9379,230.603 -1.451,30.7533 -13.7926,62.7906 -50.2031,85.4508 -33.1892,20.6554 -54.6673,23.9344 -89.3334,33.0556 -7.917,2.0831 -26.5012,8.985 -118.6666,23.8312 -1.8219,0.2935 -3.4069,0.6928 -3.6667,0.7208 -232.0225,25.0025 -273.8007,28.2142 -434.3333,34.5922 -82.0867,3.2613 -538.26469,2.569 -559.99959,-0.6512 z"
       id="path1" />
  </g>
</svg>
