<?xml version="1.0" encoding="UTF-8" standalone="no"?>
<!-- Created with Inkscape (http://www.inkscape.org/) -->

<svg
   version="1.1"
   id="svg1"
   width="2437.3333"
   height="3840"
   viewBox="0 0 2437.3333 3840"
   xmlns="http://www.w3.org/2000/svg"
   xmlns:svg="http://www.w3.org/2000/svg">
  <defs
     id="defs1" />
  <g
     id="g1">
    <path
       style="fill:#000000"
       d="m 585.50855,3039.2837 c -19.28965,-4.8686 -52.27391,-11.6316 -67.61483,-19.0333 -24.83843,-11.9841 -27.46518,-12.0209 -43.22708,-26.9171 -17.5253,-16.5627 -50.37927,-94.3979 -53.87983,-103.3279 -16.94594,-43.2292 -35.32899,-70.7054 -42.75009,-112.4738 -4.2972,-27.0482 -16.13049,-68.9749 -18.1154,-88.2339 -2.39543,-23.2422 -10.55098,-95.758 -11.48769,-98.413 -1.31463,-3.7261 -9.25742,-107.5296 -2.103,-165.8921 3.20271,-22.3688 8.51981,-45.0898 17.21161,-52.0279 4.65903,-3.7187 0.86359,-4.723 14.53519,-14.0923 36.23456,-24.8326 68.18244,-25.7826 71.28066,-27.755 38.08279,-8.8223 45.38822,-13.2326 83.47975,-14.0384 9.34981,-0.1593 54.80097,-1.7495 63.14101,-2.9725 87.71063,-12.8616 496.45325,-11.1261 728.61005,-31.6715 5.8385,-0.5167 291.9642,-29.211 301.2807,-30.139 119.8042,-11.9334 140.4028,-8.9139 147.7466,-8.8787 21.8488,0.1047 57.1536,3.101 85.5146,8.7872 17.3617,3.4809 40.5157,16.8596 52.8691,23.5425 17.0088,9.2014 58.4951,37.1871 65.3231,42.9186 16.9775,20.2684 28.0821,41.1772 31.2432,67.3843 16.7177,138.5985 32.9793,281.1972 21.3957,421.949 -2.8244,39.213 -18.1155,74.4138 -23.8628,86.5849 -15.9006,33.6725 -78.7907,61.3404 -112.0986,68.2805 -55.1586,11.4918 -55.3322,9.6133 -138.5231,27.2097 -36.5754,7.7364 -891.4487,61.6171 -1010.04594,62.0145 -3.71995,0.6225 -138.9339,-7.5073 -159.92291,-12.8048 z m -57.50857,-799.3218 c -33.31366,0.512 -51.48938,0.198 -91.81662,-3.4684 -11.17957,-1.0164 -36.55283,-4.0744 -46.76638,-9.028 -45.13793,-22.4955 -67.11141,-67.6355 -69.24002,-72.4056 -0.32905,-0.7374 -24.01472,-47.3141 -24.7215,-49.7831 -33.13542,-115.7531 -27.76594,-476.0264 -10.57989,-492.5743 4.01009,-3.8612 19.47256,-25.7512 45.97528,-41.0533 34.32988,-19.8214 124.05518,-24.0451 151.54078,-25.1324 46.09579,0.2754 78.18967,-2.9315 122.78112,-2.3468 2.69583,0.1946 350.93151,-0.4607 351.85813,-0.5347 28.95511,-2.3115 739.95522,-14.5153 782.75822,-14.57 28.5579,-0.037 87.2703,6.555 115.3599,8.3627 15.5444,1.0004 79.8333,12.9153 87.4815,15.4276 18.2464,5.9936 44.1991,26.6965 63.3237,56.4816 15.9227,24.7984 12.0347,31.0521 12.9181,59.5005 0.6901,22.2249 8.7005,63.1209 5.9359,265.1662 -0.4701,34.3481 -0.3574,73.0404 -3.9994,91.2103 -1.1574,5.4313 4.5439,-20.1707 -9.3776,52.7897 -0.5596,2.9333 -18.1968,39.7591 -19.973,41.5433 -10.9656,11.0149 -45.0928,35.9347 -55.5538,42.8832 -12.9322,8.5898 -88.9905,28.1686 -95.9045,29.5174 -5.4165,1.0567 -238.2401,15.4674 -329.3556,23.508 -127.7403,3.692 -945.78549,23.9352 -982.64432,24.5061 z m 95.33333,-755.3597 c -7.36139,-1.0904 -62.1882,-4.9186 -34.92202,-2.9878 5.9493,0.4213 -10.83736,4.5354 -68.25059,-11.3827 -28.78499,-10.4183 -55.49596,-20.9383 -75.21912,-46.4765 -0.10066,-0.137 -26.23245,-35.7095 -28.2559,-46.3494 -0.21681,-1.1401 -1.05128,-6.5729 -1.85438,-12.0729 -0.80309,-5.5 -1.83968,-13.6 -2.30353,-18 -0.46384,-4.4 -0.82724,-35 -0.80753,-68 0.079,-132.3656 3.55286,-131.0371 2.39784,-254.6666 -0.2809,-30.0667 0.0166,-57.9667 0.66106,-62.00003 2.92794,-18.32388 -2.3e-4,-23.84759 6.36189,-38.6975 2.48445,-12.03176 4.08817,-16.06386 8.86511,-26.3364 0.85338,-2.06024 13.21476,-18.17284 15.38368,-19.45406 12.75642,-13.1171 23.68611,-22.76785 40.90888,-32.43179 10.62612,-7.31798 17.04122,-8.41578 29.45784,-9.70117 8.20843,-1.23454 31.42562,-2.0839 39.07677,-2.30193 36.50128,-1.04017 11.92986,-3.0995 55.8826,-4.71581 4.05321,-0.13033 64.05164,-2.2663 64.90146,-2.79152 292.00871,-21.89882 575.15473,-42.643 876.38253,-56.44384 12.8334,-0.5568 55.8169,-4.54947 70.6131,-5.18219 33.9237,-1.45065 67.9177,-6.13971 87.8969,0.77441 7.3963,3.03707 33.2427,6.0814 50.2561,14.1316 18.474,6.55146 34.6071,15.59125 49.503,29.28037 0.6343,0.61371 5.7818,6.28865 19.7309,29.41512 10.0701,16.5868 13.7993,33.72037 13.9565,34.4549 18.5982,69.4697 26.5745,125.33685 29.6417,204.33334 1.5114,38.9259 12.3157,95.3963 5.9379,230.603 -1.451,30.7533 -13.7926,62.7906 -50.2031,85.4508 -33.1892,20.6554 -54.6673,23.9344 -89.3334,33.0556 -7.917,2.0831 -26.5012,8.985 -118.6666,23.8312 -1.8219,0.2935 -3.4069,0.6928 -3.6667,0.7208 -232.0225,25.0025 -273.8007,28.2142 -434.3333,34.5922 -82.0867,3.2613 -538.26469,2.569 -559.99959,-0.6512 z"
       id="path1" />
  </g>
</svg>
